<svg data-v-423bf9ae="" xmlns="http://www.w3.org/2000/svg" viewBox="0 0 419.20225012783584 163" class="iconAbove"><!----><!----><!----><g data-v-423bf9ae="" id="414a2772-49be-415b-b2e3-a39d0177cb56" fill="#341930" transform="matrix(5.6980053264473165,0,0,5.6980053264473165,-6.153841409943254,80.26496179257632)"><path d="M4.55 14.52C5.98 14.52 6.89 13.68 7.32 12.50L6.87 12.32C6.51 13.37 5.74 14.06 4.55 14.06C2.63 14.06 1.64 12.66 1.64 10.00L1.64 8.93C1.64 6.27 2.63 4.87 4.55 4.87C5.74 4.87 6.51 5.56 6.87 6.61L7.32 6.43C6.89 5.25 5.98 4.41 4.55 4.41C2.30 4.41 1.08 5.96 1.08 9.46C1.08 12.96 2.30 14.52 4.55 14.52ZM12.70 14.52C14.10 14.52 15.06 13.79 15.48 12.67L15.09 12.46C14.67 13.54 13.85 14.08 12.70 14.08C11.06 14.08 10.14 12.94 10.14 11.14L10.14 10.78L15.62 10.78L15.62 10.58C15.62 8.40 14.56 6.96 12.63 6.96C10.77 6.96 9.60 8.29 9.60 10.74C9.60 13.19 10.77 14.52 12.70 14.52ZM12.63 7.38C14.20 7.38 15.11 8.51 15.11 10.32L15.11 10.39L10.14 10.39L10.14 10.33C10.14 8.53 11.06 7.38 12.63 7.38ZM18.03 14.35L23.97 14.35L23.97 13.92L21.25 13.92L21.25 3.99L18.03 3.99L18.03 4.42L20.76 4.42L20.76 13.92L18.03 13.92ZM26.43 14.35L32.37 14.35L32.37 13.92L29.65 13.92L29.65 3.99L26.43 3.99L26.43 4.42L29.16 4.42L29.16 13.92L26.43 13.92ZM36.05 14.35L37.77 8.12L37.83 8.12L39.55 14.35L40.36 14.35L41.26 4.58L40.81 4.58L39.96 13.83L39.89 13.83L38.11 7.46L37.51 7.46L35.73 13.83L35.66 13.83L34.80 4.58L34.34 4.58L35.24 14.35ZM46.20 14.52C48.33 14.52 49.46 12.95 49.46 9.46C49.46 5.98 48.33 4.41 46.20 4.41C44.07 4.41 42.94 5.98 42.94 9.46C42.94 12.95 44.07 14.52 46.20 14.52ZM46.20 14.06C44.41 14.06 43.50 12.66 43.50 10.00L43.50 8.93C43.50 6.27 44.41 4.87 46.20 4.87C47.99 4.87 48.90 6.27 48.90 8.93L48.90 10.00C48.90 12.66 47.99 14.06 46.20 14.06ZM52.36 9.93L54.43 9.93L57.20 14.35L57.79 14.35L54.99 9.91L55.40 9.91C56.98 9.87 57.82 8.85 57.82 7.25C57.82 5.61 56.95 4.58 55.30 4.58L51.86 4.58L51.86 14.35L52.36 14.35ZM52.36 9.48L52.36 5.04L55.30 5.04C56.63 5.04 57.27 5.92 57.27 6.94L57.27 7.56C57.27 8.60 56.63 9.48 55.30 9.48ZM66.22 14.35L66.22 13.89L61.26 13.89L61.26 4.58L60.76 4.58L60.76 14.35ZM68.67 14.35L71.26 14.35C73.61 14.35 74.65 12.70 74.65 9.46C74.65 6.23 73.61 4.58 71.26 4.58L68.67 4.58ZM69.17 13.89L69.17 5.04L71.26 5.04C73.22 5.04 74.09 6.50 74.09 8.95L74.09 9.98C74.09 12.43 73.22 13.89 71.26 13.89Z"></path></g><defs data-v-423bf9ae=""><linearGradient data-v-423bf9ae="" gradientTransform="rotate(25)" id="5737d60b-5d70-4ea6-8321-d947740cd744" x1="0%" y1="0%" x2="100%" y2="0%"><stop data-v-423bf9ae="" offset="0%" style="stop-color: rgb(142, 66, 211); stop-opacity: 1;"></stop><stop data-v-423bf9ae="" offset="100%" style="stop-color: rgb(212, 105, 117); stop-opacity: 1;"></stop></linearGradient></defs><g data-v-423bf9ae="" id="57872da9-6ddb-4fad-a773-0a9a0a71f13a" transform="matrix(1.0021490618232678,0,0,1.0021490618232678,159.63754203012311,-5.0109516184447145)" stroke="none" fill="url(#5737d60b-5d70-4ea6-8321-d947740cd744)"><path d="M66.937 6.331a2.99 2.99 0 0 0-2.415-1.235h-9.778c-.885 0-1.672.39-2.221 1H35.475c-7.02 0-12.73 5.711-12.73 12.73v63.347c0 7.02 5.711 12.73 12.73 12.73h29.06c7.014 0 12.72-5.711 12.72-12.73V18.826c0-6.197-4.449-11.367-10.318-12.495zm4.318 75.843c0 3.711-3.015 6.73-6.72 6.73h-29.06a6.738 6.738 0 0 1-6.73-6.73V18.826a6.738 6.738 0 0 1 6.73-6.73h29.06c3.706 0 6.72 3.019 6.72 6.73v63.348z"></path><path d="M65.183 65.587H34.817a3 3 0 1 0 0 6h30.366a3 3 0 1 0 0-6zM50 76.223c-2.692 0-4.882 2.19-4.882 4.882s2.19 4.882 4.882 4.882 4.882-2.19 4.882-4.882-2.19-4.882-4.882-4.882zm0 6a1.12 1.12 0 0 1 0-2.236 1.12 1.12 0 0 1 0 2.236z"></path></g><!----></svg>